<?xml version="1.0" encoding="utf-8"?>
<!-- Generator: Adobe Illustrator 25.0.0, SVG Export Plug-In . SVG Version: 6.00 Build 0)  -->
<svg version="1.1" id="Layer_1" xmlns="http://www.w3.org/2000/svg" xmlns:xlink="http://www.w3.org/1999/xlink" x="0px" y="0px"
	 viewBox="0 0 512 512" style="enable-background:new 0 0 512 512;" xml:space="preserve">
<style type="text/css">
	.st0{fill:#FFD52E;stroke:#FFCC33;stroke-miterlimit:10;}
</style>
<path class="st0" d="M360.1,137.8l5.6,5.7c4.3,4.4,4.3,11.5,0,15.9L352.2,173l-21.3-21.6l13.5-13.6
	C348.7,133.4,355.7,133.4,360.1,137.8L360.1,137.8z M253.1,230.2l62.1-62.9l21.3,21.6l-62.1,62.8c-1.3,1.4-3,2.3-4.8,2.9l-27.1,7.8
	l7.7-27.4C250.8,233.2,251.7,231.5,253.1,230.2L253.1,230.2z M328.7,122l-91.3,92.3c-4,4.1-6.9,9.1-8.5,14.6l-13.2,46.8
	c-1.1,3.9,0,8.1,2.8,11s7,4,10.9,2.9l46.3-13.4c5.5-1.6,10.4-4.5,14.4-8.6l91.3-92.3c13-13.2,13-34.5,0-47.6l-5.6-5.7
	C362.8,108.8,341.7,108.8,328.7,122z M196.8,140.2c-22.5,0-40.7,18.4-40.7,41.2v127.3c0,22.7,18.2,41.2,40.7,41.2h125.8
	c22.5,0,40.7-18.4,40.7-41.2v-52.4c0-6.2-4.9-11.2-11.1-11.2s-11.1,5-11.1,11.2v52.4c0,10.3-8.3,18.7-18.5,18.7H196.8
	c-10.2,0-18.5-8.4-18.5-18.7V181.4c0-10.3,8.3-18.7,18.5-18.7h51.8c6.2,0,11.1-5,11.1-11.2s-4.9-11.2-11.1-11.2H196.8z"/>
</svg>
